<svg id="Layer_1" data-name="Layer 1" xmlns="http://www.w3.org/2000/svg" viewBox="0 0 128 128"><defs><style>.cls-1,.cls-6{fill:#f2f2f2;}.cls-2{fill:#ccc;}.cls-3{fill:#c1272d;}.cls-4,.cls-7{fill:none;}.cls-4,.cls-5,.cls-6,.cls-7,.cls-8,.cls-9{stroke:#000;stroke-linecap:round;stroke-linejoin:round;}.cls-4,.cls-5,.cls-6{stroke-width:2px;}.cls-8{fill:red;}.cls-9{fill:#ed1c24;}</style></defs><title>icon</title><rect class="cls-1" x="36" y="23" width="58" height="112"/><rect class="cls-2" x="-6.5" y="-4.5" width="139" height="139"/><rect class="cls-1" x="13" y="-9" width="100" height="105"/><rect class="cls-3" x="10" y="8" width="18" height="15" transform="translate(18.64 -9.02) rotate(49.95)"/><rect class="cls-3" x="99.9" y="3.57" width="13.73" height="25.1" transform="translate(50.41 -75.98) rotate(49.95)"/><rect class="cls-3" x="5" y="5" width="13" height="91"/><rect class="cls-3" x="111" y="4" width="13" height="91"/><path d="M0,11V88A10.84,10.84,0,0,0,10.66,99h7.6a2.75,2.75,0,0,0,.81,0h89.86a2.75,2.75,0,0,0,.81,0h7.6A10.84,10.84,0,0,0,128,88V11A10.84,10.84,0,0,0,117.34,0H10.66A10.84,10.84,0,0,0,0,11ZM11.35,6.19h7.07L63.05,44.11a2.61,2.61,0,0,0,3.4,0L111.08,6.19h7.07a5.4,5.4,0,0,1,5.33,5.47V88.85a5.4,5.4,0,0,1-5.33,5.48h-5.21V23.16a2.7,2.7,0,0,0-2.67-2.74,2.63,2.63,0,0,0-1.71.62L64.75,57.93,21,21a2.65,2.65,0,0,0-1.74-.62,2.71,2.71,0,0,0-2.65,2.74V94.33H11.35A5.41,5.41,0,0,1,6,88.85V11.66A5.4,5.4,0,0,1,11.35,6.19Zm15.46,0h75.76l-37.88,32ZM21.08,27.41,62.29,62a2.64,2.64,0,0,0,3.42,0l41.21-34.63V92.78H21.08Z"/><rect class="cls-1" x="39" y="89" width="10" height="9" transform="translate(94.51 3.35) rotate(54.46)"/><rect class="cls-1" x="55" y="76" width="20" height="39" transform="translate(83.99 -18.45) rotate(43.7)"/><rect class="cls-1" x="34" y="91" width="57" height="46"/><path class="cls-4" d="M32.28,131.32s8-34.75,8.2-35.65"/><path class="cls-4" d="M35,83.16,30.8,89.93s9.14,4.46,11.28,7.13,8.73,9.79,10,10.14,8.56-7.29,9.09-7.46A75,75,0,0,0,75.59,88.86c5.17-5.34,8.85-13.35,8.85-13.35"/><path class="cls-5" d="M31.51,63.74s.94-.54-3-3.93-6.77-3.74-7.3-6.41S19.8,47.33,20,45.2s1-1.43,1-1.43S21.18,43.41,20,37,22,30.22,22,30.22a5.5,5.5,0,0,1-1-4.1c.36-2.49,5.35-10,5.35-10s6.05-1.6,7-3.56.18-4.28,3-5.88,9.8-2.14,9.8-2.14,6.66-3.21,11.44-3,6.92,2.85,10.13,3.21,5.7.71,7.84.17S79.87,6,82,7.41s7.85,6.24,7.85,6.24,5.34,3,5.88,6.77,1.78,3,3.21,5.35.36,6.59,3,6.86,2.67,9,0,10.07c0,0,5.7,7.67-.72,15.51,0,0-1.6,5,.18,5.53s-1.24,3.56-3.21,3.91a3.12,3.12,0,0,0-2.49,2.5c-.18.54-1.07,4.84-2.14,5.36s-3.94-1.24-3.94-1.24"/><path class="cls-6" d="M56.77,103.77s-.07-5.46-3.46-13.3c0,0,19.43-8.56,21.57-10.34s5.34-4.81,5.34-4.81c1.25.71,4.46.35,5.35-.18a24.32,24.32,0,0,0,6.24-5.88c2.14-3,2.49-7.49,2.67-11.06s-1.24-4.63-4.1-5.52-5.7,2.32-7.3,4.1-2.68,3.74-3.75,3.49-1.42-3.13-2.06-6,.28-4.64,0-6.78-1.86-2.85-2.21-3.92,1.42-3,2-6.77.53-8.92-3-11.59a17.13,17.13,0,0,0-10.34-3.15c-2.5,0-8.56.48-10.52.12s-5.7,0-11.23,1.43a14,14,0,0,0-7.84,4.81s-3.56,7-3.21,10.52a114,114,0,0,1,0,13.36c-.16,1.25.56,4.1.74,7.13S30.32,73,35,83.16c0,0,7,14.39,13,15.15a26.9,26.9,0,0,0,8,0"/><path class="cls-7" d="M53.13,49.94s3.56-.71,5.34-.82a14.84,14.84,0,0,1,5.71.84,12.25,12.25,0,0,1,3.93,2.37"/><path class="cls-7" d="M32.28,50.72s.18-.65,2.49-.77a22.48,22.48,0,0,1,5.71.83s2.32,1.37,2.32,3.69S40.51,60.52,40,62.31s-1.73,3.38-2,5.52a5.24,5.24,0,0,0,0,3.46c.68,1.71,1.48,2,1.48,2"/><path class="cls-7" d="M43.54,73.94a2.55,2.55,0,0,1,2.15-.67,21.58,21.58,0,0,1,3.08.67c.8.13,1.47.27,1.73-.67a4.28,4.28,0,0,0-.78-4.55"/><path class="cls-8" d="M53.13,58A17,17,0,0,1,55.89,55a4.45,4.45,0,0,1,3.66-.53A9.34,9.34,0,0,1,64,56.69a5.07,5.07,0,0,1-3.38,2.14,17.23,17.23,0,0,1-4.73,0Z"/><path class="cls-9" d="M42.35,56.63A5,5,0,0,0,38.87,55,7,7,0,0,0,34,56.63s1.13,2.29,2.43,2.38A32.85,32.85,0,0,0,40,59l1.45,0"/><path class="cls-7" d="M37.93,80.89a4.17,4.17,0,0,1,2.55.4,7.37,7.37,0,0,0,4.24,1.07c1.77-.14,4.69-1,6.1-.75a18.36,18.36,0,0,0,3.56,0"/><path class="cls-7" d="M40.47,84.36a6.11,6.11,0,0,0,3.07,1.21A35.83,35.83,0,0,0,48.9,85"/><path class="cls-5" d="M53.09,131.16S84,93.06,89.48,74.71l.47-1s10.48,22.88,10.13,24.5c0,0,15.86,13.57,17.64,16.24L126,131.08H2l9.19-15.54s9.8-5.17,13.19-8.74,8.91-12.3,9.44-13.54v-1.9"/></svg>